<svg width="12" height="12" viewBox="0 0 12 12" fill="none" xmlns="http://www.w3.org/2000/svg">
<g clip-path="url(#clip0_1_549)">
<path d="M4.10556 4.32926L4.66144 5.44101L5.2205 4.32295L5 3.88195C4.79362 3.46569 4.47475 3.11558 4.07952 2.87133C3.6843 2.62707 3.22855 2.49844 2.76394 2.50001H0V3.50001H2.76394C3.04271 3.49907 3.31617 3.57626 3.55331 3.72283C3.79044 3.8694 3.98176 4.07949 4.10556 4.32926Z" fill="#8C8C8C"/>
<path d="M10.3534 7.14652L9.64623 7.85364L10.2927 8.50008H8.23586C7.95709 8.50102 7.68363 8.42383 7.44649 8.27726C7.20936 8.13069 7.01804 7.92061 6.89423 7.67083L6.33836 6.55908L5.7793 7.67714L5.9998 8.11814C6.20617 8.5344 6.52505 8.88451 6.92027 9.12877C7.3155 9.37302 7.77125 9.50166 8.23586 9.50008H10.2927L9.64623 10.1465L10.3534 10.8536L11.8534 9.35364C11.8998 9.30721 11.9366 9.25209 11.9618 9.19143C11.9869 9.13076 11.9998 9.06574 11.9998 9.00008C11.9998 8.93442 11.9869 8.8694 11.9618 8.80873C11.9366 8.74807 11.8998 8.69295 11.8534 8.64652L10.3534 7.14652Z" fill="#8C8C8C"/>
<path d="M11.8536 2.64648L10.3536 1.14648L9.64644 1.85361L10.2929 2.50005H8.23606C7.77146 2.49847 7.3157 2.6271 6.92048 2.87136C6.52525 3.11562 6.20638 3.46572 6 3.88198L4.10556 7.6708C3.98176 7.92057 3.79044 8.13066 3.55331 8.27723C3.31617 8.4238 3.04271 8.50099 2.76394 8.50005H0V9.50005H2.76394C3.22855 9.50162 3.6843 9.37299 4.07952 9.12873C4.47475 8.88448 4.79363 8.53437 5 8.11811L6.89444 4.3293C7.01824 4.07952 7.20956 3.86943 7.4467 3.72286C7.68383 3.57629 7.95729 3.4991 8.23606 3.50005H10.2929L9.64644 4.14648L10.3536 4.85361L11.8536 3.35361C11.9 3.30718 11.9368 3.25206 11.962 3.19139C11.9871 3.13073 12 3.06571 12 3.00005C12 2.93438 11.9871 2.86936 11.962 2.8087C11.9368 2.74803 11.9 2.69291 11.8536 2.64648Z" fill="#8C8C8C"/>
</g>
<defs>
<clipPath id="clip0_1_549">
<rect width="12" height="12" fill="white"/>
</clipPath>
</defs>
</svg>
