<svg width="28" height="28" viewBox="0 0 28 28" fill="none" xmlns="http://www.w3.org/2000/svg">
<g clip-path="url(#clip0_1_833)">
<path d="M27.7071 10.2929L20.7069 3.29273C20.3163 2.90225 19.6832 2.90237 19.2927 3.29296C19.1052 3.48047 18.9999 3.73465 18.9999 3.99979V6.99984H11.9997C11.4474 6.99984 10.9997 7.44756 10.9997 7.99988C10.9997 8.55219 11.4474 8.99991 11.9997 8.99991H19.9999C20.5522 8.99991 21 8.55219 21 7.99988V6.41378L25.586 10.9999L21 15.586V13.9999C21 13.4476 20.5522 12.9999 19.9999 12.9999H8.99969V9.99983C8.99957 9.44752 8.55173 8.99991 7.99948 9.00003C7.73439 9.00009 7.48015 9.10538 7.29265 9.29283L0.292568 16.293C-0.0978483 16.6835 -0.0978483 17.3165 0.292568 17.707L7.29271 24.7071C7.48021 24.8947 7.73451 25.0001 7.99971 25.0001C8.13114 25.0005 8.26139 24.9747 8.38269 24.9241C8.75629 24.7692 8.99981 24.4046 8.99969 24.0001V21H15.9998C16.5521 21 16.9999 20.5523 16.9999 20C16.9999 19.4477 16.5521 19 15.9998 19H7.99971C7.4474 19 6.99967 19.4477 6.99967 20V21.5861L2.41358 17L6.99967 12.4139V13.9999C6.99967 14.5522 7.4474 14.9999 7.99971 14.9999H18.9999V18C19 18.5523 19.4478 18.9999 20.0001 18.9998C20.2652 18.9997 20.5194 18.8944 20.7069 18.707L27.7071 11.7069C28.0974 11.3163 28.0974 10.6833 27.7071 10.2929Z" fill="#2B2B2B"/>
</g>
<defs>
<clipPath id="clip0_1_833">
<rect width="28" height="28" fill="white"/>
</clipPath>
</defs>
</svg>
