<svg width="14" height="14" viewBox="0 0 14 14" fill="none" xmlns="http://www.w3.org/2000/svg">
<g clip-path="url(#clip0_1_811)">
<path d="M13.8751 10.131C13.8375 10.068 13.6047 9.56217 12.4846 8.52259C11.312 7.43401 11.4695 7.61077 12.8819 5.72851C13.7421 4.58217 14.086 3.88212 13.9784 3.58285C13.876 3.29757 13.2433 3.37283 13.2433 3.37283L11.1396 3.38508C11.1396 3.38508 10.9839 3.36408 10.8675 3.43321C10.7546 3.50146 10.682 3.65898 10.682 3.65898C10.682 3.65898 10.3486 4.54629 9.90406 5.3006C8.96686 6.89234 8.59146 6.97635 8.43832 6.87747C8.08217 6.64733 8.17143 5.95165 8.17143 5.45811C8.17143 3.91537 8.40507 3.2722 7.71552 3.10594C7.48625 3.05081 7.31824 3.01405 6.73282 3.00793C5.98202 3.00005 5.34584 3.01055 4.98619 3.18644C4.74642 3.3037 4.56179 3.56534 4.67467 3.58022C4.8138 3.5986 5.12883 3.6651 5.29597 3.89262C5.51211 4.18577 5.50423 4.84557 5.50423 4.84557C5.50423 4.84557 5.62849 6.66133 5.21458 6.88709C4.93019 7.04198 4.54078 6.72608 3.7051 5.28135C3.27719 4.54192 2.95342 3.72373 2.95342 3.72373C2.95342 3.72373 2.89129 3.57147 2.78015 3.49009C2.64539 3.39121 2.45638 3.3597 2.45638 3.3597L0.455982 3.37196C0.455982 3.37196 0.155835 3.38071 0.0455767 3.51109C-0.0524306 3.62747 0.0377011 3.86724 0.0377011 3.86724C0.0377011 3.86724 1.60407 7.53114 3.37695 9.3784C5.00369 11.0717 6.85008 10.9605 6.85008 10.9605H7.68664C7.68664 10.9605 7.93954 10.9325 8.06817 10.7934C8.18718 10.6656 8.18281 10.4259 8.18281 10.4259C8.18281 10.4259 8.16618 9.30315 8.68772 9.13776C9.20138 8.975 9.86118 10.2228 10.5604 10.7033C11.0889 11.0664 11.4905 10.9868 11.4905 10.9868L13.3606 10.9605C13.3606 10.9605 14.3389 10.9001 13.8751 10.131Z" fill="white"/>
</g>
<defs>
<clipPath id="clip0_1_811">
<rect width="14" height="14" fill="white"/>
</clipPath>
</defs>
</svg>
